<?xml version="1.0" encoding="UTF-8" standalone="no"?>
<!-- Created with Inkscape (http://www.inkscape.org/) -->

<svg
   width="1000.0001"
   height="1000.0001"
   viewBox="0 0 264.58335 264.58335"
   version="1.1"
   id="svg5"
   xml:space="preserve"
   xmlns="http://www.w3.org/2000/svg"
   xmlns:svg="http://www.w3.org/2000/svg"><defs
     id="defs2" /><g
     id="layer4"
     style="display:inline"><g
       id="layer15-5"
       transform="translate(10.054164,-1.5875017)"
       style="display:inline"><path
         id="path6085-0"
         style="display:inline;fill:#ffffff;stroke-width:0.762605"
         d="m 65.637197,55.410535 c -31.932017,-0.0051 -32.886678,0.289964 -34.758985,1.436109 -4.928875,3.017251 -4.779799,0.906163 -4.548699,64.256116 l 0.209177,57.36609 1.760885,2.46854 c 0.968272,1.35753 2.855347,2.79149 4.193953,3.18661 1.338601,0.3951 5.179239,0.65719 8.534699,0.58227 l 6.101019,-0.1364 v -6.10102 -6.10102 l -4.003736,-0.22996 -4.003737,-0.23059 V 119.70824 67.509817 h 69.396867 69.39748 v 3.812908 3.812907 h 6.17442 6.17441 l -0.26423,-7.231313 c -0.25581,-7.000043 -0.34396,-7.310868 -2.75723,-9.723096 l -2.493,-2.491785 -75.67405,-0.193886 c -18.709016,-0.04797 -32.795236,-0.08331 -43.439243,-0.08502 z m 70.379753,27.351523 c -74.507087,0 -76.138701,0.0311 -78.004955,1.499108 -1.048376,0.824643 -2.302643,2.455557 -2.786591,3.623913 -0.644903,1.557003 -0.824688,17.737971 -0.674629,60.591841 l 0.204286,58.46763 1.906453,2.0508 c 1.04858,1.12811 2.592996,2.33502 3.431861,2.682 0.838865,0.34698 35.156201,0.64755 76.260595,0.66791 57.87523,0.0288 75.14874,-0.17511 76.56823,-0.90461 1.00815,-0.51811 2.55257,-1.91084 3.43187,-3.09485 1.58474,-2.13392 1.60094,-2.65086 1.82755,-59.1019 0.15565,-38.77538 -0.0315,-57.843794 -0.58594,-59.752678 -0.44788,-1.541964 -1.86394,-3.68695 -3.14684,-4.76644 l -2.33276,-1.962724 z m -68.678807,12.20143 h 69.015827 69.01582 v 52.238792 52.23818 H 136.35397 67.338143 v -52.23818 z" /><path
         style="fill:none;stroke:#ffffff;stroke-width:7;stroke-dasharray:none;paint-order:stroke fill markers"
         d="m 73.152617,202.89491 20.953928,-57.8104 21.515195,56.50078 25.25697,-78.01598 29.7471,79.13851 38.43295,-46.25952"
         id="path1914" /><circle
         style="fill:none;stroke:#ffffff;stroke-width:3;stroke-dasharray:none;paint-order:stroke fill markers"
         id="path1968"
         cx="183.39552"
         cy="120.57589"
         r="9.5749645" /></g></g></svg>
