<?xml version="1.0" encoding="UTF-8" standalone="no"?>
<!-- Created with Inkscape (http://www.inkscape.org/) -->

<svg
   width="1000.0001"
   height="1000.0001"
   viewBox="0 0 264.58335 264.58335"
   version="1.1"
   id="svg5"
   xml:space="preserve"
   xmlns="http://www.w3.org/2000/svg"
   xmlns:svg="http://www.w3.org/2000/svg"><defs
     id="defs2" /><g
     id="layer34"
     style="display:inline"><g
       id="layer38"
       style="display:inline"><g
         id="g26"
         style="display:inline;stroke-width:1.55961"
         transform="matrix(0.64212827,0,0,0.64024595,74.656291,4.4405748)"><path
           style="display:inline;fill:none;fill-opacity:1;stroke:#ffffff;stroke-width:20.6323;stroke-linecap:round;stroke-dasharray:none;stroke-opacity:1"
           d="M 216.97637,47.616957 V 112.28174"
           id="path2-6-7" /><path
           style="display:inline;fill:none;fill-opacity:1;stroke:#ffffff;stroke-width:20.6323;stroke-linecap:round;stroke-dasharray:none;stroke-opacity:1"
           d="M 250.07754,79.949355 H 183.8752"
           id="path3-8-6" /></g><path
         id="rect3153-8"
         style="display:inline;fill:#ffffff;fill-opacity:1;stroke:none;stroke-width:9.98322;stroke-dasharray:none;paint-order:stroke fill markers"
         d="m 150.3426,36.745642 c -3.61348,0.06867 -7.03065,1.880231 -9.4048,5.418389 -4.74823,7.076319 -3.47658,18.300656 2.85057,25.166472 l 21.78063,23.634185 -65.997638,0.0016 21.221878,-23.030247 c 6.3271,-6.865823 7.59883,-18.090163 2.85055,-25.166482 -4.74826,-7.076319 -13.6652,-7.245564 -19.99234,-0.379738 L 63.24024,86.24387 c -1.302693,1.413574 -2.38813,3.01375 -3.253761,4.722466 H 40.233395 c -12.917691,0 -23.316327,10.398664 -23.316327,23.316334 0,11.14974 7.7497,20.41811 18.177294,22.74753 l 8.611873,69.27812 0.03516,-0.005 c 0.904733,12.07865 10.926547,21.5364 23.244389,21.5364 H 198.40893 c 12.91767,0 23.31798,-10.39866 23.31798,-23.31634 0,-0.0793 -0.005,-0.157 -0.005,-0.23576 l 8.38102,-67.39948 c 10.11693,-2.54966 17.56333,-11.67497 17.56333,-22.60534 0,-12.91768 -10.39874,-23.316314 -23.31628,-23.316314 h -19.45783 c -0.90864,-1.937169 -2.0926,-3.748606 -3.54813,-5.328089 L 160.93016,41.784296 c -3.16357,-3.432915 -6.97403,-5.107329 -10.58756,-5.038654 z m -18.03841,82.604108 c 0.18274,0.003 0.36584,0.0155 0.55039,0.0291 5.90478,0.5014 10.62598,6.73494 10.58583,13.97508 l -0.28101,50.78128 c -0.0401,7.24016 -4.82658,12.66477 -10.73141,12.16338 -5.90481,-0.50141 -10.62596,-6.73327 -10.58581,-13.97343 l 0.28101,-50.78128 c 0.0373,-6.7876 4.24603,-11.98072 9.63735,-12.1901 0.17966,-0.005 0.36124,-0.008 0.5437,-0.005 z m -55.806608,3.54147 c 4.936351,0.12328 9.251147,4.51823 10.157625,10.78826 l 7.265235,50.25938 c 1.03594,7.16565 -2.782059,13.98916 -8.5617,15.29827 -5.779564,1.3091 -11.266277,-3.40673 -12.302193,-10.57248 L 65.78962,138.40529 c -1.035942,-7.16575 2.783727,-13.98921 8.563368,-15.29828 0.722475,-0.1637 1.439415,-0.23319 2.144594,-0.21595 z m 111.586418,0 c 0.70518,-0.018 1.42215,0.052 2.1446,0.21594 5.77964,1.30908 9.59931,8.13089 8.56336,15.29661 l -7.26693,50.26106 c -1.03591,7.16575 -6.5225,11.87991 -12.30216,10.5708 -5.77967,-1.30907 -9.59767,-8.13088 -8.56172,-15.29661 l 7.26525,-50.26108 c 0.90645,-6.27004 5.2213,-10.66313 10.1576,-10.78657 z" /></g></g></svg>
