<?xml version="1.0" encoding="UTF-8" standalone="no"?>
<!-- Created with Inkscape (http://www.inkscape.org/) -->

<svg
   width="1000.0001"
   height="1000.0001"
   viewBox="0 0 264.58335 264.58335"
   version="1.1"
   id="svg5"
   xml:space="preserve"
   xmlns="http://www.w3.org/2000/svg"
   xmlns:svg="http://www.w3.org/2000/svg"><defs
     id="defs2" /><g
     id="layer34"><g
       id="layer58"
       style="display:inline"><circle
         style="display:inline;fill:none;stroke:#ffffff;stroke-width:12.32;stroke-dasharray:none;paint-order:stroke fill markers"
         id="path2514-0"
         cx="132.29167"
         cy="132.29167"
         r="95.713142" /><path
         style="font-size:145.07px;font-family:Calibri;-inkscape-font-specification:Calibri;baseline-shift:baseline;display:inline;overflow:visible;opacity:1;vector-effect:none;fill:#ffffff;paint-order:stroke fill markers;enable-background:accumulate;stop-color:#000000;stop-opacity:1"
         d="m 137.03711,66.423828 c -1.02191,0 -1.86246,0.05119 -2.67969,0.173828 -0.84956,0.07603 -1.7162,0.236262 -2.61523,0.75 -0.76475,0.436995 -1.53921,1.146748 -2.00391,2.076172 l -0.0606,0.121094 -0.0488,0.125 c -0.1917,0.479114 -0.32144,0.967415 -0.40235,1.453125 l -0.0176,0.105469 -1.17382,11.859375 c -3.52284,0.422786 -6.83285,1.096273 -9.74805,2.259765 -3.62532,1.400141 -6.74699,3.288931 -9.26953,5.699219 -2.49895,2.340655 -4.41835,5.146507 -5.67383,8.3125 -1.24424,3.137635 -1.85742,6.516835 -1.85742,10.052735 0,4.31502 0.68838,8.14645 2.2168,11.42969 l 0.004,0.01 0.006,0.01 c 1.44153,3.04323 3.3777,5.7015 5.7793,7.88476 2.31634,2.10576 4.94923,3.86643 7.85937,5.26953 l 0.01,0.004 0.01,0.006 c 2.78256,1.31805 5.59194,2.49011 8.42969,3.51758 l 0.01,0.004 0.008,0.002 c 2.76978,0.98585 5.46711,1.97204 8.09375,2.95703 l 0.0332,0.0117 0.0332,0.0117 c 2.47514,0.86847 4.61539,1.91368 6.4414,3.11718 l 0.0352,0.0234 0.0371,0.0234 c 1.78314,1.10951 3.11973,2.38862 4.12304,3.875 l 0.01,0.0156 0.0117,0.0156 c 0.83839,1.211 1.33398,2.80145 1.33398,5.0918 0,3.69826 -1.17128,6.0706 -3.95312,8.17578 l -0.008,0.006 -0.008,0.008 c -2.63973,2.025 -6.97353,3.29492 -13.25195,3.29492 -3.57472,0 -6.54716,-0.34198 -8.87695,-0.95508 -2.56325,-0.67453 -4.69585,-1.3864 -6.38477,-2.10156 -1.75147,-0.80998 -3.15517,-1.52395 -4.13867,-2.09766 l 0.0859,0.0527 c -1.35704,-0.84814 -2.47969,-1.55664 -4.34375,-1.55664 -0.88082,0 -1.83321,0.233 -2.66797,0.6914 -1.21747,0.64778 -1.80983,1.64304 -2.1582,2.4961 -0.360325,0.82838 -0.540124,1.63928 -0.658208,2.51758 -0.127026,0.89422 -0.175781,1.86505 -0.175781,2.99804 0,1.56117 0.08456,2.85647 0.371093,4.07422 0.291416,1.2385 0.862236,2.44924 1.749996,3.42578 l 0.10352,0.11524 0.11523,0.10351 c 0.83869,0.76245 1.7946,1.36648 2.9668,2.00586 l 0.0273,0.0156 0.0254,0.0137 c 1.27311,0.66423 2.71537,1.26056 4.34375,1.82031 1.62836,0.55975 3.44344,1.08115 5.45703,1.57227 l 0.0371,0.01 0.0371,0.008 c 1.06884,0.23462 2.29213,0.39037 3.44336,0.58203 l -1.30469,12.26172 0.0801,-0.44532 c -0.20265,0.81061 -0.26593,1.80575 0.0684,2.8086 l 0.043,0.1289 0.0527,0.12305 c 0.46653,1.08858 1.50452,1.97511 2.49609,2.39062 0.72146,0.33444 1.43453,0.52952 2.17578,0.64844 0.98999,0.20301 2.0139,0.27735 3.20508,0.27735 1.0418,0 1.92412,-0.0445 2.77149,-0.1836 0.78454,-0.1212 1.53911,-0.32777 2.34375,-0.75195 0.84307,-0.40945 1.71275,-1.23892 2.14648,-2.26953 0.23583,-0.48372 0.46329,-0.98064 0.54883,-1.49414 l 0.0156,-0.10352 1.30664,-12.87305 c 3.87838,-0.38288 7.56791,-1.03928 10.91211,-2.19531 4.13724,-1.43016 7.74027,-3.38326 10.73242,-5.89453 2.98709,-2.50701 5.33124,-5.55664 6.94532,-9.04883 1.67648,-3.57225 2.50195,-7.52193 2.50195,-11.71679 0,-4.31765 -0.71574,-8.14068 -2.30859,-11.39454 -1.44273,-3.08667 -3.40451,-5.77261 -5.85743,-7.95507 -2.33103,-2.11551 -5.00345,-3.85657 -7.97265,-5.21094 -2.77655,-1.2665 -5.62469,-2.41153 -8.54297,-3.43359 -2.79007,-1.04006 -5.536,-2.03367 -8.23438,-2.98047 -2.49223,-0.87447 -4.67751,-1.91011 -6.57226,-3.08789 -1.73034,-1.10394 -3.08129,-2.39058 -4.14258,-3.89844 -0.84727,-1.26237 -1.34766,-2.91146 -1.34765,-5.24805 0,-1.46211 0.24259,-2.71856 0.68554,-3.85937 0.45127,-1.04901 1.0836,-1.89463 2.04883,-2.66016 l 0.006,-0.004 0.006,-0.006 c 0.99216,-0.79374 2.39214,-1.49942 4.2832,-2.023443 1.8973,-0.512855 4.33737,-0.804687 7.28711,-0.804687 2.54744,0 4.78615,0.280583 6.72852,0.806641 2.16015,0.585039 4.01644,1.208349 5.55078,1.847659 l 0.0137,0.006 0.0137,0.006 c 1.67104,0.67745 3.01551,1.29803 3.99414,1.82812 1.31623,0.71295 2.22742,1.31445 4.02735,1.31445 0.94968,0 2.06694,-0.34495 2.88086,-0.99609 0.81392,-0.65113 1.29249,-1.47917 1.58007,-2.24609 0.30813,-0.82154 0.40538,-1.57076 0.4668,-2.384769 0.1101,-0.825823 0.16602,-1.695243 0.16602,-2.654297 0,-0.827601 -0.0592,-1.611301 -0.18164,-2.373047 -0.0564,-0.602859 -0.12761,-1.179709 -0.25,-1.730469 -0.13806,-0.621235 -0.38531,-1.229191 -0.69141,-1.814453 -0.40685,-0.883005 -0.94866,-1.494201 -1.5332,-2.021484 -0.91532,-0.893832 -1.79972,-1.34518 -2.97657,-1.908204 -1.25666,-0.650875 -2.62885,-1.200378 -4.11328,-1.664062 -1.43292,-0.507657 -2.96172,-0.933264 -4.58789,-1.28125 C 145.04066,83.663634 144.52891,83.624509 144,83.517578 l 1.24609,-11.328125 v -0.177734 c 0,-0.648636 -0.0771,-1.325063 -0.30859,-2.019532 -0.40522,-1.215661 -1.32501,-1.991297 -2.14453,-2.447265 -0.95579,-0.612133 -1.84937,-0.825321 -2.75977,-0.947266 -0.89374,-0.126838 -1.86383,-0.173828 -2.99609,-0.173828 z m 0,6.5 c 0.71035,0 1.15199,0.04238 1.58008,0.08203 l -1.76953,16.080078 3.26757,0.326172 c 1.24591,0.124591 2.55376,0.356212 3.92579,0.699219 l 0.0566,0.01367 0.0566,0.01172 c 1.43357,0.30409 2.73476,0.668943 3.90234,1.085937 l 0.0645,0.02344 0.0664,0.01953 c 1.21122,0.375897 2.2577,0.803947 3.14258,1.265625 l 0.0508,0.02539 0.0508,0.02539 c 0.94178,0.450415 1.49564,0.907754 1.29883,0.710938 l 0.0684,0.06836 0.0723,0.0625 c 0.20721,0.184183 0.1668,0.25311 0.0215,-0.08594 l 0.0723,0.169921 0.0918,0.16211 c 0.007,0.01216 0.0406,0.0753 0.0742,0.226562 0.053,0.238355 0.10857,0.595804 0.14648,1.050782 l 0.0117,0.132812 0.0215,0.132813 c 0.0583,0.350045 0.0976,0.813067 0.0976,1.376953 0,0.418467 -0.037,0.673925 -0.0586,1.003906 -1.18578,-0.61568 -2.49101,-1.23179 -4.0957,-1.882813 -1.86283,-0.775415 -3.96964,-1.473832 -6.33789,-2.115234 -2.59108,-0.701748 -5.40283,-1.035156 -8.42774,-1.035156 -3.37418,0 -6.36104,0.321497 -8.99609,1.035156 l -0.008,0.002 -0.01,0.002 c -2.54109,0.702853 -4.77264,1.741445 -6.61133,3.210938 -1.76086,1.397695 -3.14416,3.190673 -4.01367,5.240233 l -0.0176,0.0391 -0.0156,0.0391 c -0.77395,1.96464 -1.14649,4.08815 -1.14649,6.29101 0,3.32096 0.77209,6.38876 2.46875,8.90235 l 0.0156,0.0234 0.0156,0.0215 c 1.57663,2.25231 3.61176,4.16433 6.01758,5.69531 l 0.0137,0.01 0.0156,0.008 c 2.35298,1.46408 4.97849,2.69414 7.86523,3.70703 2.67099,0.93719 5.39098,1.92128 8.1582,2.95312 l 0.0293,0.0117 0.0312,0.0117 c 2.74154,0.95954 5.41312,2.03253 8.01367,3.21875 2.40643,1.09767 4.49615,2.46826 6.31641,4.12305 l 0.0137,0.0117 0.0137,0.0117 c 1.78326,1.58512 3.2084,3.51299 4.3125,5.88476 l 0.0137,0.0312 0.0156,0.0293 c 1.04366,2.12459 1.65039,4.94908 1.65039,8.55469 0,3.35801 -0.63765,6.30161 -1.88672,8.96093 l -0.006,0.01 -0.004,0.01 c -1.21914,2.64147 -2.93222,4.87776 -5.23047,6.80665 -2.29686,1.92771 -5.16285,3.51612 -8.67578,4.73046 -3.49119,1.20683 -7.45807,1.93893 -11.92188,2.16211 l -2.79101,0.13868 -1.73633,17.1289 c -0.32064,0.0395 -0.76188,0.084 -1.47266,0.084 -0.73475,0 -1.14453,-0.0585 -1.50976,-0.10938 l 1.82031,-17.10937 -3.16602,-0.39454 c -2.16425,-0.27052 -4.15184,-0.60749 -5.96484,-1.0039 -1.84581,-0.45101 -3.47131,-0.91806 -4.85742,-1.39453 -1.38216,-0.47512 -2.52405,-0.96029 -3.41992,-1.42578 -0.79335,-0.4353 -1.26126,-0.77588 -1.50977,-0.98047 -0.0549,-0.072 -0.11794,-0.13992 -0.1875,-0.43555 -0.0913,-0.38784 -0.19727,-1.3137 -0.19727,-2.58594 0,-0.72683 0.0429,-1.18479 0.084,-1.61523 l 0.0137,0.008 0.043,0.0234 c 1.27156,0.74174 2.83579,1.53208 4.73828,2.41015 l 0.0449,0.0215 0.0449,0.0195 c 2.08373,0.88559 4.51338,1.68033 7.31641,2.41797 3.05366,0.80359 6.55023,1.16992 10.53125,1.16992 7.13108,0 12.94856,-1.3746 17.20312,-4.63672 4.19868,-3.18389 6.51954,-7.98478 6.51954,-13.34765 0,-3.27659 -0.78056,-6.30716 -2.48633,-8.77735 -1.54075,-2.27625 -3.59064,-4.19615 -6.04102,-5.72461 -2.2994,-1.50905 -4.88889,-2.76038 -7.75,-3.76953 l -0.0273,-0.01 c -2.64833,-0.99295 -5.36534,-1.98643 -8.15235,-2.97852 -2.63689,-0.95474 -5.25382,-2.0472 -7.85156,-3.27734 -0.003,-0.002 -0.007,-0.002 -0.01,-0.004 -2.37054,-1.14517 -4.45494,-2.54746 -6.28907,-4.21484 -1.75303,-1.59367 -3.16715,-3.51514 -4.27539,-5.85352 -6.4e-4,-0.001 -0.001,-0.003 -0.002,-0.004 -1.01625,-2.19226 -1.59961,-5.05787 -1.59961,-8.66602 0,-2.79202 0.4704,-5.31598 1.39844,-7.65625 0.91388,-2.304572 2.24883,-4.261224 4.08594,-5.978516 l 0.0137,-0.01172 0.0137,-0.01367 c 1.81712,-1.738113 4.16507,-3.197989 7.14063,-4.345703 l 0.0176,-0.0078 0.0195,-0.0059 c 2.9191,-1.167638 6.42895,-1.917796 10.54883,-2.183594 l 2.75196,-0.177734 1.58789,-16.027344 c 0.32728,-0.03696 0.74583,-0.08008 1.4707,-0.08008 z"
         id="text2624-9" /></g></g></svg>
