<?xml version="1.0" encoding="UTF-8" standalone="no"?>
<!-- Created with Inkscape (http://www.inkscape.org/) -->

<svg
   width="1000.0001"
   height="1000.0001"
   viewBox="0 0 264.58335 264.58335"
   version="1.1"
   id="svg5"
   xml:space="preserve"
   xmlns="http://www.w3.org/2000/svg"
   xmlns:svg="http://www.w3.org/2000/svg"><defs
     id="defs2" /><g
     id="layer34"
     style="display:inline"><g
       id="layer57"
       style="display:inline"><path
         style="display:inline;fill:#ffffff;fill-opacity:1;stroke-width:0.264583;stroke-linecap:round;stroke-linejoin:round;stroke-dasharray:none"
         d="m 126.18068,124.31712 c -1.64598,-0.60014 -3.01069,-1.83038 -3.65016,-3.29048 -0.1878,-0.42881 -0.79062,-3.0315 -1.3396,-5.78376 -0.99814,-5.00411 -0.99814,-5.00411 -2.3766,-5.54655 -0.75816,-0.29833 -1.64643,-0.66103 -1.97395,-0.80599 -0.59223,-0.2621 -0.61907,-0.24783 -4.91365,2.6162 -4.79503,3.19776 -5.60686,3.55925 -7.62924,3.3971 -2.09839,-0.16824 -2.82679,-0.67226 -6.939919,-4.80224 -4.053257,-4.06981 -4.464651,-4.6728 -4.635085,-6.7935 -0.15892,-1.97744 0.217368,-2.81564 3.404106,-7.582901 2.867396,-4.289532 2.881707,-4.316339 2.61928,-4.907884 -0.145119,-0.32713 -0.506142,-1.208768 -0.802276,-1.95919 -0.538418,-1.364416 -0.538418,-1.364416 -5.553088,-2.3711 -3.176817,-0.637735 -5.379113,-1.180217 -6.009069,-1.480191 -1.104016,-0.525708 -2.132789,-1.557471 -2.802935,-2.811075 -0.43387,-0.811637 -0.441904,-0.936801 -0.441904,-6.889328 0,-5.95252 0.0076,-6.077689 0.441904,-6.889321 0.669333,-1.252085 1.698095,-2.284715 2.802935,-2.813473 0.643703,-0.308058 2.761281,-0.825693 6.004396,-1.467762 5.010019,-0.991871 5.010019,-0.991871 5.553099,-2.368709 0.298693,-0.75726 0.661819,-1.644491 0.806938,-1.971625 0.262427,-0.591535 0.248116,-0.618344 -2.61928,-4.907876 -3.186738,-4.767261 -3.563026,-5.605459 -3.404106,-7.582887 0.170434,-2.120713 0.581828,-2.7237 4.635085,-6.793525 4.113129,-4.129957 4.841529,-4.633989 6.939919,-4.802229 2.02238,-0.162147 2.83421,0.19934 7.62924,3.397101 4.29458,2.864021 4.32142,2.878311 4.91365,2.616199 0.32752,-0.144953 1.21579,-0.50765 1.97395,-0.805995 1.37846,-0.542441 1.37846,-0.542441 2.3715,-5.546553 1.10943,-5.590684 1.47139,-6.585148 2.83224,-7.781604 1.64438,-1.445747 2.2211,-1.552989 8.35147,-1.552989 6.13037,0 6.70708,0.107241 8.35148,1.552989 1.36083,1.196456 1.72279,2.19092 2.83223,7.781604 0.99305,5.004112 0.99305,5.004112 2.3715,5.546553 0.75815,0.298345 1.64643,0.661042 1.97395,0.805995 0.59223,0.262112 0.61907,0.247822 4.91365,-2.616199 4.79503,-3.197761 5.60686,-3.559248 7.62923,-3.397101 2.0984,0.16824 2.82679,0.672272 6.93992,4.802229 4.05325,4.069825 4.46466,4.672812 4.63509,6.793525 0.15891,1.977428 -0.21737,2.815626 -3.40411,7.582887 -2.8674,4.289532 -2.8817,4.316341 -2.61928,4.907876 0.14513,0.327134 0.50826,1.214365 0.80694,1.971625 0.54308,1.376838 0.54308,1.376838 5.55309,2.368709 3.27287,0.64796 5.35839,1.158642 6.01479,1.472844 1.26015,0.603213 2.42721,1.910924 2.94934,3.304789 0.38007,1.014628 0.39896,1.386365 0.34363,6.764608 -0.0566,5.507974 -0.0728,5.717574 -0.50043,6.517643 -0.66601,1.245894 -1.69469,2.28198 -2.80292,2.823136 -0.66672,0.325547 -2.64644,0.812068 -6.00763,1.476368 -5.01321,0.990805 -5.01321,0.990805 -5.55307,2.35904 -0.29693,0.75253 -0.65861,1.635882 -0.80374,1.963012 -0.26242,0.591545 -0.24812,0.618352 2.61928,4.907884 3.18674,4.767261 3.56302,5.605461 3.40411,7.582901 -0.17043,2.1207 -0.58184,2.72369 -4.63509,6.7935 -4.11313,4.12998 -4.84152,4.634 -6.93992,4.80224 -2.02098,0.16203 -2.83542,-0.20016 -7.60956,-3.38402 -4.29851,-2.86665 -4.29851,-2.86665 -6.28773,-2.07376 -1.98922,0.79291 -1.98922,0.79291 -2.98664,5.79702 -0.64313,3.22656 -1.16668,5.35694 -1.4739,5.99735 -0.52936,1.10354 -1.56321,2.1311 -2.81677,2.79963 -0.80381,0.42869 -0.9939,0.44268 -6.6084,0.48641 -4.40242,0.0343 -5.94699,-0.0156 -6.47789,-0.20915 z m 11.39029,-11.19134 c 0.84087,-4.11509 1.17419,-5.38761 1.60161,-6.11441 0.55426,-0.94252 2.11306,-2.32467 2.88121,-2.55472 0.23765,-0.0712 1.42928,-0.54595 2.64806,-1.05507 4.27037,-1.78382 4.75384,-1.67881 10.84727,2.35582 4.40133,2.91422 4.40133,2.91422 7.3132,0.005 2.9119,-2.90846 2.9119,-2.90846 -0.005,-7.304613 -3.94803,-5.948617 -4.1183,-6.63654 -2.56273,-10.353334 0.39873,-0.952714 0.91942,-2.222903 1.1571,-2.822665 0.23768,-0.599747 0.7388,-1.448304 1.11361,-1.88567 1.27114,-1.483319 2.0691,-1.782182 7.78473,-2.915667 5.19065,-1.029384 5.19065,-1.029384 5.13884,-5.171201 -0.0518,-4.141811 -0.0518,-4.141811 -5.06182,-5.138429 -5.57819,-1.109802 -6.5434,-1.468033 -7.80152,-2.895656 -0.44527,-0.505265 -1.02504,-1.533762 -1.42181,-2.52229 -0.36847,-0.918035 -0.88653,-2.188807 -1.15123,-2.823944 -1.28066,-3.072885 -1.00404,-4.037019 2.80482,-9.775952 2.91766,-4.396139 2.91766,-4.396139 0.004,-7.306669 -2.91396,-2.910529 -2.91396,-2.910529 -7.30858,0.007 -5.73306,3.80602 -6.70621,4.084587 -9.79002,2.8024 -0.63588,-0.264388 -1.90815,-0.781833 -2.82727,-1.149876 -0.98969,-0.396308 -2.0194,-0.975385 -2.52525,-1.420139 -1.43533,-1.261939 -1.79509,-2.223683 -2.91485,-7.79234 -1.00624,-5.004111 -1.00624,-5.004111 -5.13694,-5.004111 -4.1307,0 -4.1307,0 -5.19052,5.196577 -1.16074,5.691487 -1.43189,6.407037 -2.90526,7.666704 -0.4336,0.37071 -1.27965,0.868251 -1.88011,1.105646 -0.60045,0.237395 -1.87215,0.757477 -2.82597,1.155741 -3.72839,1.556746 -4.42539,1.384605 -10.3681,-2.560602 -4.39462,-2.91748 -4.39462,-2.91748 -7.30858,-0.007 -2.913959,2.910528 -2.913959,2.910528 0.003,7.306666 3.94802,5.948625 4.1183,6.636553 2.56274,10.353348 -0.39874,0.952709 -0.92182,2.228779 -1.16241,2.835715 -0.2406,0.606933 -0.77111,1.482142 -1.17893,1.944896 -1.25229,1.421 -2.225012,1.783018 -7.791149,2.899643 -5.010003,1.005058 -5.010003,1.005058 -5.010003,5.1226 0,4.11754 0,4.11754 4.880496,5.115868 2.684283,0.549073 5.284708,1.152507 5.778724,1.340946 1.270802,0.48475 2.735432,2.015443 3.302352,3.451302 0.25077,0.635133 0.78218,1.934276 1.18092,2.88699 1.55556,3.716793 1.38528,4.404716 -2.56274,10.353341 -2.917664,4.396155 -2.917664,4.396155 -0.005,7.304605 2.91189,2.90847 2.91189,2.90847 7.3132,-0.005 5.95563,-3.94338 6.64437,-4.11346 10.36555,-2.55971 0.95382,0.39825 2.2314,0.92073 2.83906,1.16105 0.60764,0.2403 1.47768,0.76474 1.93341,1.16542 1.46457,1.28765 1.77324,2.11847 2.88906,7.77644 1.00963,5.11948 1.00963,5.11948 5.15085,5.07061 4.14123,-0.0488 4.14123,-0.0488 5.20311,-5.24544 z m -9.53702,-16.643543 c -4.51047,-0.975122 -8.13278,-2.997573 -11.30075,-6.309541 -2.574,-2.691026 -4.34367,-5.826706 -5.31859,-9.424046 -0.46525,-1.716731 -0.50999,-2.19414 -0.50999,-5.442419 0,-3.248279 0.0448,-3.725692 0.50999,-5.442424 0.58573,-2.16128 1.84577,-4.934479 3.04046,-6.691653 1.06523,-1.566789 3.39106,-3.993424 4.99422,-5.210687 1.7482,-1.327398 5.12976,-2.954783 7.4285,-3.574994 1.76716,-0.476789 2.22249,-0.519896 5.49174,-0.519896 3.26465,0 3.72705,0.04363 5.49174,0.518135 2.27383,0.611413 5.64113,2.235765 7.4285,3.583435 3.84266,2.897352 6.77106,7.236115 8.03817,11.90943 0.46122,1.701038 0.50649,2.186345 0.50649,5.428654 0,3.265409 -0.0431,3.720185 -0.5205,5.485278 -0.62094,2.296034 -2.25025,5.673617 -3.57921,7.419764 -1.2187,1.601268 -3.64818,3.924366 -5.21683,4.988351 -1.77778,1.205852 -4.55154,2.457908 -6.69953,3.024109 -2.62634,0.692303 -7.21689,0.813588 -9.78441,0.258504 z m 8.18943,-2.799903 c 5.59153,-1.183617 10.3766,-4.85749 12.90428,-9.907604 1.42185,-2.840756 1.99629,-5.277585 1.99629,-8.468499 0,-1.217348 -0.10647,-2.733016 -0.23668,-3.368152 -1.60457,-7.829169 -7.36323,-13.578291 -15.14563,-15.120527 -0.63588,-0.126013 -2.15333,-0.229114 -3.37211,-0.229114 -1.21879,0 -2.73623,0.103101 -3.37212,0.229114 -7.77535,1.540841 -13.5425,7.298437 -15.14562,15.120527 -0.13017,0.635136 -0.23667,2.150804 -0.23667,3.368152 0,1.217347 0.10647,2.733011 0.23667,3.368152 1.19516,5.831546 4.7963,10.682055 9.84486,13.260345 2.28627,1.167608 4.09249,1.711471 7.03499,2.118282 0.94394,0.130499 4.1447,-0.08553 5.49174,-0.370676 z m -7.33291,-6.509486 c -5.31524,-1.572046 -8.85326,-6.314301 -8.85326,-11.866617 0,-3.55117 1.06017,-6.07038 3.65362,-8.681851 1.82186,-1.834522 3.48678,-2.793618 5.79123,-3.336106 2.75806,-0.649276 6.24113,-0.216815 8.72874,1.083767 1.57681,0.824399 4.09099,3.324573 5.01518,4.987229 1.95814,3.522836 1.95792,8.373288 -4.7e-4,11.893922 -0.91096,1.637563 -3.25671,3.983715 -4.88242,4.883242 -2.75085,1.522093 -6.44203,1.926808 -9.45254,1.036414 z m 6.45539,-3.239975 c 2.37278,-0.787204 4.11443,-2.346167 5.22965,-4.681092 3.15076,-6.596678 -2.26412,-13.985916 -9.50665,-12.972961 -4.93295,0.68993 -8.51413,5.460045 -7.75269,10.326558 0.24113,1.541121 1.21726,3.679985 2.18666,4.791361 2.35287,2.697425 6.29517,3.713186 9.84303,2.536134 z"
         id="path2540-9-9" /><path
         style="display:inline;fill:none;fill-opacity:1;stroke:#ffffff;stroke-width:13.2292;stroke-linecap:round;stroke-linejoin:round;stroke-dasharray:none;stroke-opacity:1"
         d="M 82.589522,73.873646 C 64.568844,70.852184 45.851868,68.949242 25.237993,71.368196 l 0.484238,154.012774 c 0,0 93.127799,-12.98099 106.202169,6.55278"
         id="path5-4" /><path
         style="display:inline;fill:none;fill-opacity:1;stroke:#ffffff;stroke-width:13.2291;stroke-linecap:round;stroke-linejoin:round;stroke-dasharray:none;stroke-opacity:1"
         d="m 131.85776,125.14301 0.5524,103.38013"
         id="path7-7" /><path
         style="display:inline;fill:none;fill-opacity:1;stroke:#ffffff;stroke-width:5.29167;stroke-linecap:round;stroke-linejoin:round;stroke-dasharray:none;stroke-opacity:1"
         d="M 111.1333,162.58791 50.893188,154.07959"
         id="path12-6" /><path
         style="display:inline;fill:none;fill-opacity:1;stroke:#ffffff;stroke-width:5.29167;stroke-linecap:round;stroke-linejoin:round;stroke-dasharray:none;stroke-opacity:1"
         d="M 111.1333,183.7764 50.893188,175.26807"
         id="path13-3" /><path
         style="display:inline;fill:none;fill-opacity:1;stroke:#ffffff;stroke-width:5.29167;stroke-linecap:round;stroke-linejoin:round;stroke-dasharray:none;stroke-opacity:1"
         d="M 96.623436,141.39538 50.893188,135.64955"
         id="path14-6" /><path
         style="display:inline;fill:none;fill-opacity:1;stroke:#ffffff;stroke-width:13.2292;stroke-linecap:round;stroke-linejoin:round;stroke-dasharray:none;stroke-opacity:1"
         d="m 181.99376,73.873646 c 18.02069,-3.021462 36.73771,-4.924404 57.35158,-2.50545 L 238.8611,225.38097 c 0,0 -93.12786,-12.98099 -106.20224,6.55278"
         id="path52" /><path
         style="display:inline;fill:none;fill-opacity:1;stroke:#ffffff;stroke-width:5.29167;stroke-linecap:round;stroke-linejoin:round;stroke-dasharray:none;stroke-opacity:1"
         d="m 153.44997,162.58791 60.24018,-8.50832"
         id="path53" /><path
         style="display:inline;fill:none;fill-opacity:1;stroke:#ffffff;stroke-width:5.29167;stroke-linecap:round;stroke-linejoin:round;stroke-dasharray:none;stroke-opacity:1"
         d="m 153.44997,183.7764 60.24018,-8.50833"
         id="path54" /><path
         style="display:inline;fill:none;fill-opacity:1;stroke:#ffffff;stroke-width:5.29167;stroke-linecap:round;stroke-linejoin:round;stroke-dasharray:none;stroke-opacity:1"
         d="m 167.95984,141.39538 45.73031,-5.74583"
         id="path55" /></g></g></svg>
