<?xml version="1.0" encoding="UTF-8" standalone="no"?>
<!-- Created with Inkscape (http://www.inkscape.org/) -->

<svg
   width="1000.0001"
   height="1000.0001"
   viewBox="0 0 264.58335 264.58335"
   version="1.1"
   id="svg5"
   xml:space="preserve"
   xmlns="http://www.w3.org/2000/svg"
   xmlns:svg="http://www.w3.org/2000/svg"><defs
     id="defs2" /><g
     id="layer4"
     style="display:inline"><g
       id="layer9"
       style="display:inline"><g
         id="g2682"
         style="display:inline"
         transform="matrix(0.88990507,0,0,0.88990507,14.564642,14.564642)"><path
           style="display:inline;fill:#fefefe;fill-opacity:1;stroke-width:0.264583"
           d="m 138.31576,226.84909 c -0.43656,-0.0509 -1.92484,-0.22096 -3.30729,-0.37792 -5.29603,-0.6013 -12.9262,-2.53304 -18.33975,-4.64308 -3.19277,-1.24445 -9.52731,-4.41146 -12.35192,-6.17546 -4.526098,-2.82658 -8.296786,-5.87865 -12.567701,-10.17251 -4.285486,-4.30852 -6.501914,-7.13911 -7.685212,-9.81476 -1.700895,-3.84603 -0.03305,-4.55069 5.060265,-2.13796 3.04896,1.4443 4.302699,2.20651 7.919169,4.81447 7.642019,5.51091 17.189449,10.0103 26.031849,12.26797 3.2848,0.83868 9.20928,1.78213 13.41992,2.13706 4.72849,0.39858 13.09596,-0.0153 18.62171,-0.92113 20.11533,-3.29742 38.8642,-14.83908 51.19832,-31.5173 7.96641,-10.77218 13.56244,-24.82785 15.47954,-38.88027 0.55072,-4.03677 0.63339,-14.91298 0.14883,-19.57917 C 220.81555,110.98737 216.9186,98.347899 212.56233,91.421954 205.4743,80.152837 196.00268,70.993044 184.39738,64.184277 163.30797,51.811234 136.48372,49.801506 113.57722,58.878286 92.177814,67.357872 75.429461,83.561638 66.532754,104.39306 c -2.645752,6.19496 -3.868701,10.51991 -6.282622,22.21847 -0.360328,1.74625 -1.010703,4.50847 -1.445276,6.13827 -0.434573,1.6298 -0.790133,3.00067 -0.790133,3.04638 0,0.0457 2.58961,-2.4797 5.754688,-5.61203 3.165078,-3.13233 7.004844,-6.66209 8.532812,-7.84391 4.658032,-3.6028 10.126592,-7.19224 11.389932,-7.4761 2.994438,-0.6728 6.852044,1.41452 8.090043,4.37746 0.503108,1.20411 0.445257,3.1966 -0.129479,4.45951 -1.881108,4.13351 -13.106242,15.10599 -24.401968,23.85272 -1.686904,1.30624 -4.610368,3.92475 -6.496588,5.81891 -4.261535,4.27948 -5.497459,4.98879 -8.692565,4.98879 -2.453286,0 -3.941632,-0.58419 -5.607265,-2.20092 -2.072963,-2.0121 -7.360548,-10.97395 -14.368267,-24.35257 -5.099336,-9.73527 -5.747367,-11.83688 -5.488551,-17.79974 0.1523,-3.50882 0.420818,-4.61541 1.45897,-6.01255 1.313421,-1.76759 4.534581,-2.50408 5.660058,-1.29411 0.304559,0.32742 1.639758,2.32731 2.967108,4.4442 2.061987,3.28852 10.973538,16.61315 11.55479,17.27684 0.107728,0.12301 0.134337,-0.76996 0.05913,-1.98438 -0.139798,-2.25742 0.42482,-8.69487 1.145115,-13.05594 0.823242,-4.98436 3.121157,-12.62668 5.449567,-18.123947 C 65.23602,70.83722 84.690288,52.347741 109.70435,43.16459 c 20.58722,-7.557972 44.55448,-7.411233 65.32974,0.399981 8.64981,3.252212 15.10557,6.802662 23.2098,12.764618 16.5415,12.168921 27.83469,27.002262 34.57351,45.411511 1.73335,4.7352 3.64332,12.51989 4.47917,18.25625 0.67715,4.64724 0.73284,5.65682 0.73707,13.36146 0.005,9.02315 -0.16931,10.9351 -1.68819,18.52083 -3.39975,16.97929 -12.06504,33.77013 -23.53464,45.60333 -4.54765,4.69183 -11.06255,10.22908 -15.7883,13.41907 -10.1373,6.84291 -21.8465,11.8163 -33.83592,14.37154 -6.00843,1.28055 -10.92133,1.75168 -17.81155,1.70809 -3.44604,-0.0218 -6.62272,-0.0813 -7.05928,-0.13218 z"
           id="path2678" /></g></g></g></svg>
