<?xml version="1.0" encoding="UTF-8" standalone="no"?>
<!-- Created with Inkscape (http://www.inkscape.org/) -->

<svg
   width="1000.0001"
   height="1000.0001"
   viewBox="0 0 264.58335 264.58335"
   version="1.1"
   id="svg5"
   xml:space="preserve"
   xmlns="http://www.w3.org/2000/svg"
   xmlns:svg="http://www.w3.org/2000/svg"><defs
     id="defs2" /><g
     id="layer4"
     style="display:inline"><g
       id="layer12"
       style="display:inline"><path
         style="fill:#ffffff;fill-opacity:1;stroke-width:0.342019"
         d="m 121.32171,219.37828 c -2.92154,-1.06647 -5.34384,-3.25266 -6.47885,-5.8473 -0.33333,-0.76201 -1.4033,-5.38708 -2.37772,-10.27794 -1.77165,-8.89249 -1.77165,-8.89249 -4.21834,-9.85644 -1.34568,-0.53016 -2.92232,-1.17468 -3.50365,-1.43227 -1.05118,-0.46578 -1.09882,-0.4404 -8.721475,4.64908 -8.510912,5.68254 -9.951864,6.32491 -13.541478,6.03677 -3.724523,-0.29897 -5.017392,-1.19465 -12.317977,-8.53374 -7.194293,-7.23222 -7.924515,-8.30375 -8.22702,-12.07234 -0.282068,-3.51396 0.385815,-5.00347 6.042104,-13.47507 5.08947,-7.62265 5.114863,-7.67029 4.64908,-8.72148 -0.257588,-0.58132 -0.898389,-2.14803 -1.424003,-3.48156 -0.955662,-2.42461 -0.955662,-2.42461 -9.856428,-4.21353 -5.638666,-1.13328 -9.547634,-2.09729 -10.665769,-2.63035 -1.959563,-0.9342 -3.785592,-2.76769 -4.975055,-4.99539 -0.770105,-1.4423 -0.784355,-1.66473 -0.784355,-12.24258 0,-10.57785 0.01425,-10.80028 0.784355,-12.24258 1.188019,-2.225 3.014024,-4.06002 4.975055,-4.99964 1.142538,-0.54743 4.901123,-1.46729 10.657491,-2.60827 8.892488,-1.76259 8.892488,-1.76259 9.856428,-4.20928 0.530167,-1.34568 1.174693,-2.92232 1.432281,-3.50365 0.465783,-1.05118 0.44039,-1.09882 -4.64908,-8.721475 -5.656289,-8.471596 -6.324172,-9.961104 -6.042104,-13.475067 0.302505,-3.768584 1.032727,-4.840112 8.22702,-12.072343 7.300585,-7.339082 8.593454,-8.234765 12.317977,-8.533734 3.589614,-0.28814 5.030566,0.354235 13.541478,6.036773 7.622655,5.08947 7.670295,5.114864 8.721475,4.64908 0.58133,-0.257587 2.15797,-0.902113 3.50365,-1.432281 2.44669,-0.96394 2.44669,-0.96394 4.20928,-9.856428 1.9692,-9.93485 2.61165,-11.702048 5.02707,-13.828192 2.91871,-2.569145 3.94235,-2.759718 14.82342,-2.759718 10.88108,0 11.90471,0.190573 14.82342,2.759718 2.41542,2.126144 3.05787,3.893342 5.02706,13.828192 1.7626,8.892488 1.7626,8.892488 4.20929,9.856428 1.34567,0.530168 2.92232,1.174694 3.50364,1.432281 1.05119,0.465784 1.09883,0.44039 8.72148,-4.64908 8.51091,-5.682538 9.95186,-6.324913 13.54148,-6.036773 3.72453,0.298969 5.01739,1.194652 12.31798,8.533734 7.19429,7.232231 7.92452,8.303759 8.22702,12.072343 0.28207,3.513963 -0.38581,5.003471 -6.0421,13.475067 -5.08948,7.622655 -5.11486,7.670295 -4.64908,8.721475 0.25759,0.58133 0.90211,2.15797 1.43227,3.50365 0.96394,2.44669 0.96394,2.44669 9.85644,4.20928 5.80917,1.15145 9.51086,2.05895 10.67592,2.6173 2.23671,1.07193 4.30819,3.39578 5.23493,5.87273 0.6746,1.80303 0.70812,2.46362 0.60993,12.02096 -0.10054,9.78787 -0.12911,10.16033 -0.88824,11.58208 -1.18215,2.214 -3.00798,4.05516 -4.97505,5.01682 -1.18338,0.57852 -4.69726,1.44308 -10.6632,2.62356 -8.89819,1.7607 -8.89819,1.7607 -9.85642,4.1921 -0.52703,1.33727 -1.16899,2.90703 -1.42658,3.48835 -0.46578,1.05119 -0.4404,1.09883 4.64908,8.72148 5.65629,8.4716 6.32417,9.96111 6.0421,13.47507 -0.3025,3.76859 -1.03273,4.84012 -8.22702,12.07234 -7.30059,7.33909 -8.59345,8.23477 -12.31798,8.53374 -3.58714,0.28794 -5.03273,-0.35568 -13.50658,-6.01351 -7.62962,-5.09417 -7.62962,-5.09417 -11.16037,-3.68515 -3.53076,1.40903 -3.53076,1.40903 -5.30114,10.30152 -1.14151,5.73369 -2.07079,9.51945 -2.61607,10.65749 -0.93961,1.96103 -2.77463,3.78703 -4.99963,4.97505 -1.42673,0.7618 -1.76411,0.78665 -11.72956,0.86436 -7.81404,0.061 -10.55558,-0.0277 -11.49788,-0.37166 z m 20.21713,-19.88745 c 1.49251,-7.31265 2.08414,-9.57395 2.84278,-10.86551 0.98379,-1.6749 3.75056,-4.13103 5.11399,-4.53984 0.42182,-0.12648 2.5369,-0.97018 4.70016,-1.87487 7.57968,-3.16991 8.4378,-2.98332 19.25332,4.18635 7.81211,5.17869 7.81211,5.17869 12.98054,0.0102 5.16845,-5.16843 5.16845,-5.16843 -0.0102,-12.98054 -7.00753,-10.57092 -7.30976,-11.79338 -4.54871,-18.39827 0.70773,-1.693 1.63193,-3.95018 2.0538,-5.01596 0.42186,-1.06578 1.31133,-2.5737 1.97661,-3.35092 2.25619,-2.63586 3.67252,-3.16695 13.81746,-5.1812 9.21313,-1.82925 9.21313,-1.82925 9.12117,-9.18941 -0.092,-7.36015 -0.092,-7.36015 -8.98446,-9.13118 -9.90098,-1.97189 -11.61417,-2.60848 -13.84727,-5.14542 -0.79034,-0.89787 -1.81939,-2.72555 -2.52364,-4.4822 -0.65402,-1.63138 -1.57354,-3.88959 -2.04337,-5.01825 -2.2731,-5.46063 -1.78211,-7.17393 4.9784,-17.372224 5.17869,-7.812099 5.17869,-7.812099 0.007,-12.984214 -5.17212,-5.172118 -5.17212,-5.172118 -12.97234,0.01235 -10.17585,6.763438 -11.90315,7.258462 -17.37675,4.979967 -1.12866,-0.469827 -3.38687,-1.389345 -5.01825,-2.04337 -1.75665,-0.704254 -3.58432,-1.733297 -4.4822,-2.523639 -2.54762,-2.242512 -3.18617,-3.951566 -5.17369,-13.847272 -1.78602,-8.892488 -1.78602,-8.892488 -9.11779,-8.892488 -7.33177,0 -7.33177,0 -9.21288,9.234507 -2.06025,10.11398 -2.54154,11.385538 -5.15669,13.624011 -0.76962,0.658765 -2.27131,1.542914 -3.33709,1.964773 -1.06578,0.42186 -3.32296,1.346066 -5.01595,2.053793 -6.61768,2.766395 -7.85483,2.460496 -18.402813,-4.550283 -7.800224,-5.184466 -7.800224,-5.184466 -12.97234,-0.01235 -5.172117,5.172115 -5.172117,5.172115 0.0066,12.984214 7.007531,10.570925 7.309766,11.793395 4.548714,18.398275 -0.707726,1.693 -1.636173,3.96062 -2.063211,5.03917 -0.427042,1.07854 -1.368677,2.63382 -2.092527,3.45615 -2.222743,2.52517 -3.949277,3.16849 -13.828857,5.15277 -8.892489,1.78603 -8.892489,1.78603 -8.892489,9.10305 0,7.31702 0,7.31702 8.662627,9.09109 4.764444,0.97572 9.380054,2.04804 10.256911,2.38291 2.255598,0.86142 4.855224,3.5815 5.861484,6.13308 0.445107,1.12866 1.388336,3.43729 2.096062,5.13028 2.761052,6.60489 2.458817,7.82735 -4.548714,18.39828 -5.178686,7.81211 -5.178686,7.81211 -0.01024,12.98054 5.16844,5.16845 5.16844,5.16845 12.980539,-0.0102 10.570924,-7.00753 11.793394,-7.30977 18.398284,-4.54871 1.69299,0.70772 3.96061,1.63617 5.03917,2.06321 1.07854,0.42704 2.62281,1.359 3.4317,2.07101 2.59954,2.28821 3.1474,3.76461 5.12793,13.81903 1.79204,9.0975 1.79204,9.0975 9.14249,9.01066 7.35045,-0.0868 7.35045,-0.0868 9.23522,-9.32135 z m -16.9277,-29.57615 c -8.00582,-1.73283 -14.43522,-5.3268 -20.0582,-11.2123 -4.568735,-4.78204 -7.709794,-10.35425 -9.440218,-16.74686 -0.825797,-3.0507 -0.9052,-3.89907 -0.9052,-9.67138 0,-5.77231 0.07941,-6.62069 0.9052,-9.67139 1.039639,-3.84067 3.276151,-8.76875 5.396638,-11.89131 1.89074,-2.78424 6.01896,-7.09646 8.86448,-9.25958 3.10297,-2.358835 9.10504,-5.250758 13.1852,-6.352896 3.13661,-0.847273 3.94479,-0.923872 9.74753,-0.923872 5.79457,0 6.61533,0.07753 9.74754,0.920743 4.03593,1.086504 10.0127,3.973036 13.18518,6.367895 6.82052,5.1487 12.01829,12.85884 14.26733,21.16349 0.81863,3.02281 0.899,3.88522 0.899,9.64692 0,5.80275 -0.0766,6.61091 -0.92387,9.74754 -1.10214,4.08014 -3.99407,10.08222 -6.35289,13.18519 -2.16313,2.84551 -6.47534,6.97374 -9.2596,8.86448 -3.15547,2.14285 -8.07875,4.36779 -11.89131,5.37396 -4.66161,1.23025 -12.80958,1.44577 -17.36681,0.45937 z m 14.53581,-4.97554 c 9.92465,-2.10332 18.41791,-8.63193 22.90439,-17.60617 2.52371,-5.04813 3.5433,-9.37846 3.5433,-15.04883 0,-2.16327 -0.18903,-4.85667 -0.42008,-5.98533 -2.84802,-13.91272 -13.06934,-24.12912 -26.88266,-26.869729 -1.12867,-0.22393 -3.82206,-0.407145 -5.98533,-0.407145 -2.16327,0 -4.85667,0.183215 -5.98533,0.407145 -13.80083,2.738129 -24.03722,12.969589 -26.882664,26.869729 -0.231044,1.12866 -0.420081,3.82206 -0.420081,5.98533 0,2.16327 0.189037,4.85666 0.420081,5.98533 2.121344,10.36287 8.513194,18.9824 17.474094,23.56412 4.05801,2.07487 7.26395,3.04134 12.48674,3.76426 1.67544,0.23191 7.35662,-0.15201 9.74754,-0.65871 z m -13.01553,-11.56759 c -9.43425,-2.79359 -15.71405,-11.22075 -15.71405,-21.08741 0,-6.31056 1.88174,-10.78729 6.48498,-15.42797 3.23371,-3.26001 6.18885,-4.96436 10.27912,-5.92838 4.89542,-1.15379 11.07767,-0.38529 15.49304,1.92589 2.79876,1.46499 7.26129,5.90789 8.90167,8.86249 3.47561,6.26021 3.4752,14.87964 -8.3e-4,21.13594 -1.6169,2.91001 -5.78048,7.07921 -8.66603,8.6777 -4.8826,2.70481 -11.43427,3.424 -16.77774,1.84174 z M 137.5894,147.614 c 4.21155,-1.3989 7.30289,-4.16923 9.28235,-8.31847 5.59242,-11.72254 -4.01869,-24.85349 -16.8738,-23.05343 -8.75572,1.22603 -15.11211,9.7027 -13.76062,18.35067 0.428,2.73863 2.16057,6.53947 3.88122,8.51442 4.17621,4.79342 11.1736,6.59847 17.47085,4.50681 z"
         id="path2540" /></g></g></svg>
