<?xml version="1.0" encoding="UTF-8" standalone="no"?>
<!-- Created with Inkscape (http://www.inkscape.org/) -->

<svg
   width="1000.0001"
   height="1000.0001"
   viewBox="0 0 264.58335 264.58335"
   version="1.1"
   id="svg5"
   xml:space="preserve"
   xmlns="http://www.w3.org/2000/svg"
   xmlns:svg="http://www.w3.org/2000/svg"><defs
     id="defs2" /><g
     id="layer34"
     style="display:inline"><g
       id="layer43"
       style="display:inline"><path
         style="font-weight:bold;font-size:176.389px;font-family:'Montserrat Alternates';-inkscape-font-specification:'Montserrat Alternates Bold';baseline-shift:baseline;display:inline;overflow:visible;fill:#ffffff;stroke-width:1.00012;stroke-dasharray:none;paint-order:stroke fill markers;enable-background:accumulate;stop-color:#000000;stop-opacity:1"
         d="m 184.18345,77.385418 q 9.64627,9.646274 15.0723,23.168282 5.51216,13.43588 5.51216,30.1446 0,12.05785 -3.4451,24.54633 -3.4451,12.40235 -8.61274,20.58446 h -43.58049 l -1.37804,-6.71794 q -4.90926,3.27284 -9.47402,5.25377 -4.56475,1.8948 -13.1775,1.8948 -14.03877,0 -22.73764,-11.54107 -8.698875,-11.62721 -8.698875,-31.26427 0,-10.50755 2.928333,-18.34514 2.928334,-7.92373 8.009852,-13.78039 4.73701,-5.512159 11.45495,-8.612747 6.71794,-3.100588 13.34975,-3.100588 5.68442,0 10.07692,2.153187 4.39249,2.067058 6.80406,4.392499 V 90.8213 h 19.98157 v 70.27999 h 14.64167 q 3.10058,-6.80407 4.56475,-14.72779 1.55029,-8.00985 1.55029,-15.33069 0,-14.55553 -4.04799,-25.49372 -4.04798,-11.02431 -11.19656,-18.259016 -7.32084,-7.40696 -17.13936,-11.024313 -9.81853,-3.617352 -21.27348,-3.617352 -10.93819,0 -20.84285,4.306372 -9.81852,4.306372 -17.311611,11.627205 -7.665342,7.493088 -12.488479,18.775784 -4.73701,11.28269 -4.73701,24.71857 0,14.64167 4.478627,25.92436 4.564755,11.2827 12.057843,18.77579 7.49309,7.40696 17.39774,11.28269 9.90466,3.87574 20.92897,3.87574 7.32083,0 16.6226,-1.37804 9.38789,-1.29191 16.6226,-3.4451 v 16.70873 q -8.00986,1.80867 -15.93358,2.75607 -7.92373,0.94741 -17.31162,0.94741 -15.76132,0 -29.1972,-5.42603 -13.349755,-5.42603 -23.168284,-15.41682 -9.732401,-9.90465 -15.244558,-23.94343 -5.426029,-14.03877 -5.426029,-30.66137 0,-16.0197 5.684412,-29.62784 5.684411,-13.694259 15.675195,-23.857298 9.732401,-9.990783 23.254414,-15.761322 13.60813,-5.770539 28.85269,-5.770539 15.15843,0 28.2498,5.339902 13.1775,5.339901 22.65152,14.986175 z m -38.32671,75.619892 v -43.40823 q -3.53123,-1.80867 -6.54569,-2.58382 -3.01446,-0.86128 -6.80407,-0.86128 -8.26823,0 -12.74686,7.23471 -4.47863,7.2347 -4.47863,19.80931 0,13.60814 3.70348,20.15382 3.70348,6.54569 12.2301,6.54569 4.47863,0 7.8376,-1.72255 3.35897,-1.80868 6.80407,-5.16765 z"
         id="path9-4" /></g></g></svg>
