<?xml version="1.0" encoding="UTF-8" standalone="no"?>
<!-- Created with Inkscape (http://www.inkscape.org/) -->

<svg
   width="1000.0001"
   height="1000.0001"
   viewBox="0 0 264.58335 264.58335"
   version="1.1"
   id="svg5"
   xml:space="preserve"
   xmlns="http://www.w3.org/2000/svg"
   xmlns:svg="http://www.w3.org/2000/svg"><defs
     id="defs2" /><g
     id="g1"><g
       id="layer36"><g
         id="g24"
         transform="matrix(0.93048235,0,0,0.93604802,9.5849263,23.705372)"
         style="display:inline;fill:#ffffff;fill-opacity:1;stroke:#ffffff;stroke-width:0.861889;stroke-opacity:1"><path
           style="fill:#ffffff;fill-opacity:1;stroke:#ffffff;stroke-width:4.53187;stroke-dasharray:none;stroke-opacity:1;paint-order:stroke fill markers"
           d="M 200.18487,183.34689 H 54.255714"
           id="path22" /><path
           style="fill:#ffffff;fill-opacity:1;stroke:#ffffff;stroke-width:4.56083;stroke-dasharray:none;stroke-opacity:1;paint-order:stroke fill markers"
           d="M 55.471789,183.53398 14.218739,163.88967 55.378246,159.39954 29.560009,128.34282 61.739261,133.20713 47.8947,97.286108 79.699772,113.74991 75.428418,76.332177 l 26.323512,14.136257 1.81271,-30.284054 20.89057,21.172702 9.57319,-29.861265 14.94279,25.419752 14.84556,-20.424348 10.1271,27.990374 17.63495,-16.007142 2.24506,32.179247 22.45064,-15.715444 -8.2319,31.056714 c 0,0 -20.95393,6.36102 -23.19899,23.57318 -2.24507,17.21215 2.99341,24.32152 2.99341,24.32152 0,0 9.72861,13.47039 7.85773,17.58634"
           id="path23" /><path
           style="fill:#ffffff;fill-opacity:1;stroke:#ffffff;stroke-width:4.66244;stroke-dasharray:none;stroke-opacity:1;paint-order:stroke fill markers"
           d="m 209.37724,115.84823 c 0,0 22.19182,7.19982 27.2114,31.01466 5.01957,23.81482 14.00197,19.66107 14.00197,19.66107 0,0 -14.53035,19.938 -52.57346,16.89193"
           id="path24" /><ellipse
           style="fill:#ffffff;fill-opacity:1;stroke:none;stroke-width:22.8042;stroke-linecap:round;stroke-linejoin:round;stroke-opacity:0.603636"
           id="path25"
           cx="188.84868"
           cy="172.87967"
           rx="13.58582"
           ry="27.570461"
           transform="matrix(1.2432135,0,0,1.2432135,-32.677438,-67.264853)" /></g></g></g></svg>
