<?xml version="1.0" encoding="UTF-8" standalone="no"?>
<!-- Created with Inkscape (http://www.inkscape.org/) -->

<svg
   width="1000.0001"
   height="1000.0001"
   viewBox="0 0 264.58335 264.58335"
   version="1.1"
   id="svg5"
   xml:space="preserve"
   xmlns="http://www.w3.org/2000/svg"
   xmlns:svg="http://www.w3.org/2000/svg"><defs
     id="defs2" /><g
     id="layer4"
     style="display:inline"><g
       id="layer29-5"
       style="display:inline"
       transform="translate(-21.960417,-9.7895841)"><path
         style="fill:none;stroke:#ffffff;stroke-width:8;stroke-linecap:round;stroke-linejoin:round;stroke-dasharray:none;stroke-opacity:1;paint-order:stroke fill markers"
         d="M 154.74276,204.19484 H 92.107872 c 0,0 -19.640814,1.1223 0,-15.93582 13.777368,-11.96569 10.234378,-30.03958 8.202188,-44.26618 -9.713319,-67.999076 28.99506,-80.467317 53.68705,-81.44974"
         id="path26021-3" /><path
         style="fill:none;stroke:#ffffff;stroke-width:8;stroke-linecap:round;stroke-linejoin:round;stroke-dasharray:none;stroke-opacity:1;paint-order:stroke fill markers"
         d="m 148.34935,62.678316 c 0,0 -1.38505,-10.805974 5.95313,-10.980209 8.01968,-0.190417 6.2177,10.451042 6.2177,10.451042"
         id="path28929-3" /><path
         style="fill:none;stroke:#ffffff;stroke-width:8;stroke-linecap:round;stroke-linejoin:round;stroke-dasharray:none;stroke-opacity:1;paint-order:stroke fill markers"
         d="m 134.10003,215.24746 h 40.73361 c 0,0 -3.14241,17.21889 -20.63551,17.21889 -17.39321,0 -20.0981,-17.21889 -20.0981,-17.21889 z"
         id="path30443-5" /><path
         style="fill:none;stroke:#ffffff;stroke-width:8;stroke-linecap:round;stroke-linejoin:round;stroke-dasharray:none;stroke-opacity:1;paint-order:stroke fill markers"
         d="m 153.76119,204.19484 h 62.63511 c 0,0 19.64081,1.1223 0,-15.93582 -13.77736,-11.96569 -10.23438,-30.03958 -8.20219,-44.26618 9.71332,-67.999076 -28.99514,-80.467317 -53.68726,-81.44974"
         id="path31171-1" /></g></g></svg>
