<?xml version="1.0" encoding="UTF-8" standalone="no"?>
<!-- Created with Inkscape (http://www.inkscape.org/) -->

<svg
   width="1000.0001"
   height="1000.0001"
   viewBox="0 0 264.58335 264.58335"
   version="1.1"
   id="svg5"
   xml:space="preserve"
   xmlns="http://www.w3.org/2000/svg"
   xmlns:svg="http://www.w3.org/2000/svg"><defs
     id="defs2" /><g
     id="layer34"
     style="display:inline"><g
       id="layer41"
       style="display:inline"><path
         id="rect7840-1"
         style="display:inline;fill:none;fill-opacity:1;stroke:#ffffff;stroke-width:13.2292;stroke-linecap:round;stroke-linejoin:round;stroke-dasharray:none;stroke-opacity:1;paint-order:stroke fill markers"
         d="m 132.38618,86.15173 c -23.03437,-0.0026 -26.98375,22.75651 -26.98375,22.75651 0,0 -28.669461,-4.21285 -29.923227,25.35068 -1.046071,24.66614 26.488337,27.715 26.488337,27.715 h 58.65745 c 0,0 28.84722,-1.08676 28.50303,-31.35998 -0.29726,-26.14514 -30.08837,-21.7057 -30.08837,-21.7057 0,0 -1.07583,-22.75363 -26.65347,-22.75651 z m -37.521954,75.93789 v 23.77704 h 75.107124 v -23.77704 z" /><path
         id="path38"
         style="display:inline;fill:none;fill-opacity:1;stroke:#ffffff;stroke-width:19.8438;stroke-linecap:round;stroke-dasharray:none;stroke-opacity:1"
         d="M 224.56015,224.25399 H 40.023176 m 184.712974,-0.336 V 47.764393 M 39.847179,223.91799 V 47.764393 m 184.712971,0 H 40.023176" /><path
         style="display:inline;fill:none;fill-opacity:1;stroke:#ffffff;stroke-width:13.2292;stroke-linecap:round;stroke-dasharray:none;stroke-opacity:1"
         d="M 132.29166,58.652913 V 35.525331"
         id="path39" /><path
         style="display:inline;fill:none;fill-opacity:1;stroke:#ffffff;stroke-width:13.2292;stroke-linecap:round;stroke-dasharray:none;stroke-opacity:1"
         d="M 186.63736,58.652913 V 35.525331"
         id="path40" /><path
         style="display:inline;fill:none;fill-opacity:1;stroke:#ffffff;stroke-width:13.2292;stroke-linecap:round;stroke-dasharray:none;stroke-opacity:1"
         d="M 77.946001,58.652913 V 35.525331"
         id="path41" /></g></g></svg>
