<?xml version="1.0" encoding="UTF-8" standalone="no"?>
<!-- Created with Inkscape (http://www.inkscape.org/) -->

<svg
   width="1000.0001"
   height="1000.0001"
   viewBox="0 0 264.58335 264.58335"
   version="1.1"
   id="svg5"
   xml:space="preserve"
   xmlns="http://www.w3.org/2000/svg"
   xmlns:svg="http://www.w3.org/2000/svg"><defs
     id="defs2" /><g
     id="layer4"
     style="display:inline"><g
       id="layer21"
       transform="matrix(2.5738313,0,0,2.5738313,-208.20477,-186.6497)"
       style="display:inline"><path
         id="rect3153"
         style="fill:#ffffff;fill-opacity:1;stroke:none;stroke-width:3.87874;stroke-dasharray:none;paint-order:stroke fill markers"
         d="m 139.30523,86.795139 c -1.40393,0.02668 -2.73159,0.730518 -3.65401,2.105184 -1.84481,2.749333 -1.35074,7.110278 1.10752,9.777825 l 8.46234,9.182492 -25.64179,6.4e-4 8.24525,-8.947846 c 2.45824,-2.66755 2.95234,-7.028496 1.10751,-9.777829 -1.84482,-2.749333 -5.30928,-2.815089 -7.76754,-0.147538 l -15.7008,17.038413 c -0.50613,0.54921 -0.92785,1.17092 -1.26417,1.8348 h -7.674584 c -5.018857,0 -9.058996,4.04015 -9.058996,9.059 0,4.33196 3.010959,7.93296 7.062349,8.838 l 3.345935,26.91634 0.01366,-0.002 c 0.351512,4.69287 4.245246,8.36745 9.031046,8.36745 h 51.06129 c 5.01885,0 9.05964,-4.04015 9.05964,-9.059 0,-0.0308 -0.002,-0.061 -0.002,-0.0916 l 3.25624,-26.18644 c 3.93069,-0.99061 6.82381,-4.53603 6.82381,-8.78276 0,-5.01885 -4.04018,-9.05899 -9.05898,-9.05899 h -7.55981 c -0.35303,-0.75264 -0.81303,-1.45643 -1.37854,-2.0701 L 143.41877,88.752786 c -1.22913,-1.333776 -2.70959,-1.984329 -4.11354,-1.957647 z m -7.00839,32.093831 c 0.071,0.001 0.14214,0.006 0.21384,0.0113 2.29416,0.19481 4.12847,2.6167 4.11287,5.42968 l -0.10918,19.72984 c -0.0156,2.81299 -1.87525,4.92059 -4.16943,4.72579 -2.29417,-0.19481 -4.12846,-2.61605 -4.11286,-5.42904 l 0.10918,-19.72984 c 0.0145,-2.63716 1.64969,-4.65482 3.74436,-4.73617 0.0698,-0.002 0.14035,-0.003 0.21124,-0.002 z m -21.68231,1.37595 c 1.9179,0.0479 3.59431,1.75545 3.9465,4.19152 l 2.82273,19.52707 c 0.40249,2.78404 -1.0809,5.43515 -3.32644,5.94377 -2.24551,0.50862 -4.37724,-1.3236 -4.77972,-4.10768 l -2.82339,-19.52706 c -0.40249,-2.78408 1.08155,-5.43517 3.32709,-5.94378 0.2807,-0.0636 0.55925,-0.0906 0.83323,-0.0839 z m 43.35421,0 c 0.27398,-0.007 0.55254,0.0202 0.83323,0.0839 2.24554,0.50861 3.72958,3.15906 3.32709,5.94313 l -2.82339,19.52772 c -0.40248,2.78408 -2.53416,4.61565 -4.77971,4.10703 -2.24555,-0.50861 -3.72894,-3.15906 -3.32645,-5.94313 l 2.82274,-19.52773 c 0.35218,-2.43607 2.02861,-4.1429 3.94649,-4.19086 z" /></g></g></svg>
