<?xml version="1.0" encoding="UTF-8" standalone="no"?>
<!-- Created with Inkscape (http://www.inkscape.org/) -->

<svg
   width="1000.0001"
   height="1000.0001"
   viewBox="0 0 264.58335 264.58335"
   version="1.1"
   id="svg5"
   xml:space="preserve"
   xmlns="http://www.w3.org/2000/svg"
   xmlns:svg="http://www.w3.org/2000/svg"><defs
     id="defs2" /><g
     id="layer4"
     style="display:inline"><g
       id="layer27-2"
       style="display:inline;stroke:#ffffff;stroke-opacity:1"
       transform="translate(-1.8333334e-6,3.7799935)"><path
         style="fill:#000000;fill-opacity:1;stroke:#ffffff;stroke-width:7.72554;stroke-linecap:round;stroke-linejoin:round;stroke-dasharray:none;stroke-opacity:1;paint-order:stroke fill markers"
         d="M 51.869647,205.15122 H 212.71369"
         id="path6441-2" /><g
         id="g6955-1"
         transform="matrix(1.7841769,0,0,1.7841769,-110.04776,-93.192849)"
         style="stroke:#ffffff;stroke-width:4.48386;stroke-dasharray:none;stroke-opacity:1"><path
           id="rect6495-6"
           style="fill:#000000;fill-opacity:0.0151057;stroke:#ffffff;stroke-width:4.48386;stroke-dasharray:none;stroke-opacity:1;paint-order:stroke fill markers"
           d="m 127.10265,135.69025 c -5.30732,-0.0377 -3.19933,14.17355 -8.76399,14.38714 -4.87978,0.1873 -3.83452,-11.65876 -8.71651,-11.77493 -3.94762,-0.0939 -3.66985,8.18788 -7.49314,9.17527 -0.88969,0.22977 -2.213757,-0.36825 -3.211337,-0.94172 v 20.20978 h 73.707987 v -17.7284 c -0.5058,0.40205 -1.03675,0.66727 -1.52921,0.60123 -5.14254,-0.68955 -3.38338,-12.70392 -8.56359,-12.99829 -4.84139,-0.27512 -4.47973,11.2482 -9.32818,11.16324 -4.64881,-0.0815 -3.9557,-11.63111 -8.56359,-11.01032 -7.38331,0.99469 -1.1137,20.68718 -8.56359,20.64435 -7.7995,-0.0448 -0.94801,-21.01848 -8.7165,-21.7148 -0.088,-0.008 -0.17411,-0.012 -0.25835,-0.0125 z" /><path
           style="display:inline;fill:none;fill-opacity:1;stroke:#ffffff;stroke-width:4.48386;stroke-linecap:butt;stroke-linejoin:round;stroke-dasharray:none;stroke-opacity:1;paint-order:stroke fill markers"
           d="m 97.541383,145.64267 c 0,0 2.992937,2.24689 4.587637,1.83506 3.82329,-0.9874 3.54551,-9.26921 7.49313,-9.17527 4.88199,0.11617 3.83672,11.96223 8.71651,11.77493 5.653,-0.21698 3.38777,-14.87964 9.02234,-14.37459 7.76851,0.69632 0.91699,21.66998 8.7165,21.7148 7.44989,0.0428 1.18028,-19.64966 8.56359,-20.64435 4.60789,-0.62079 3.91478,10.92886 8.56359,11.01032 4.84846,0.085 4.48679,-11.43837 9.32818,-11.16325 5.18021,0.29437 3.42105,12.30875 8.56359,12.9983 1.68245,0.2256 3.82302,-3.36427 3.82302,-3.36427 -0.32169,-4.49666 0.48156,-21.39376 -2.14089,-20.64435 l -75.848887,0.30585 c -0.56466,-1.10566 0.23882,13.44127 0.61169,19.72682 z"
           id="path6934-8" /></g><g
         id="g6949-5"
         transform="matrix(1.1347951,0,0,1.1347951,-21.844158,-58.689154)"
         style="stroke:#ffffff;stroke-width:6.16851;stroke-dasharray:none;stroke-opacity:1"><path
           id="path6943-7"
           style="fill:#000000;fill-opacity:0.0151057;stroke:#ffffff;stroke-width:6.16851;stroke-dasharray:none;stroke-opacity:1;paint-order:stroke fill markers"
           d="m 127.10265,135.69025 c -5.30732,-0.0377 -3.19933,14.17355 -8.76399,14.38714 -4.87978,0.1873 -3.83452,-11.65876 -8.71651,-11.77493 -3.94762,-0.0939 -3.66985,8.18788 -7.49314,9.17527 -0.88969,0.22977 -2.213757,-0.36825 -3.211337,-0.94172 v 20.20978 h 73.707987 v -17.7284 c -0.5058,0.40205 -1.03675,0.66727 -1.52921,0.60123 -5.14254,-0.68955 -3.38338,-12.70392 -8.56359,-12.99829 -4.84139,-0.27512 -4.47973,11.2482 -9.32818,11.16324 -4.64881,-0.0815 -3.9557,-11.63111 -8.56359,-11.01032 -7.38331,0.99469 -1.1137,20.68718 -8.56359,20.64435 -7.7995,-0.0448 -0.94801,-21.01848 -8.7165,-21.7148 -0.088,-0.008 -0.17411,-0.012 -0.25835,-0.0125 z" /><path
           style="display:inline;fill:none;fill-opacity:1;stroke:#ffffff;stroke-width:6.16851;stroke-linecap:butt;stroke-linejoin:round;stroke-dasharray:none;stroke-opacity:1;paint-order:stroke fill markers"
           d="m 97.541383,145.64267 c 0,0 2.992937,2.24689 4.587637,1.83506 3.82329,-0.9874 3.54551,-9.26921 7.49313,-9.17527 4.88199,0.11617 3.83672,11.96223 8.71651,11.77493 5.653,-0.21698 3.38777,-14.87964 9.02234,-14.37459 7.76851,0.69632 0.91699,21.66998 8.7165,21.7148 7.44989,0.0428 1.18028,-19.64966 8.56359,-20.64435 4.60789,-0.62079 3.91478,10.92886 8.56359,11.01032 4.84846,0.085 4.48679,-11.43837 9.32818,-11.16325 5.18021,0.29437 3.42105,12.30875 8.56359,12.9983 1.68245,0.2256 3.82302,-3.36427 3.82302,-3.36427 -0.32169,-4.49666 0.48156,-21.39376 -2.14089,-20.64435 l -75.848887,0.30585 c -0.56466,-1.10566 0.23882,13.44127 0.61169,19.72682 z"
           id="path6945-6" /></g><g
         id="g6975-1"
         transform="matrix(1.7841769,0,0,1.7841769,-78.292851,-92.525249)"
         style="display:inline;stroke:#ffffff;stroke-opacity:1"><path
           style="fill:none;fill-opacity:1;stroke:#ffffff;stroke-width:2.24193;stroke-linecap:butt;stroke-linejoin:round;stroke-dasharray:none;stroke-opacity:1;paint-order:stroke fill markers"
           d="m 130.38047,98.890477 v -9.382665 h 3.39583 v 9.382665 z"
           id="path6971-8" /><path
           style="display:inline;fill:none;fill-opacity:1;stroke:#ffffff;stroke-width:2;stroke-linecap:butt;stroke-linejoin:round;stroke-dasharray:none;stroke-opacity:1;paint-order:stroke fill markers"
           d="m 132.06578,80.222176 c 0,0 3.85672,4.725839 0.2716,5.594959 -3.58512,0.86912 0,-4.236959 0,-4.236959 z"
           id="path6973-9" /></g><g
         id="g6967-2"
         transform="matrix(1.7841769,0,0,1.7841769,-103.74007,-93.192849)"
         style="stroke:#ffffff;stroke-opacity:1"><path
           style="fill:none;fill-opacity:1;stroke:#ffffff;stroke-width:2.24193;stroke-linecap:butt;stroke-linejoin:round;stroke-dasharray:none;stroke-opacity:1;paint-order:stroke fill markers"
           d="M 130.48813,98.782816 V 85.125345 h 3.18051 v 13.657471 z"
           id="path6951-7" /><path
           style="display:inline;fill:none;fill-opacity:1;stroke:#ffffff;stroke-width:2;stroke-linecap:butt;stroke-linejoin:round;stroke-dasharray:none;stroke-opacity:1;paint-order:stroke fill markers"
           d="m 132.06578,75.98884 c 0,0 3.85672,4.725839 0.2716,5.594959 -3.58512,0.86912 0,-4.236959 0,-4.236959 z"
           id="path6941-9" /></g><g
         id="g6963-5"
         transform="matrix(1.7841769,0,0,1.7841769,-129.27572,-92.525249)"
         style="stroke:#ffffff;stroke-opacity:1"><path
           style="fill:none;fill-opacity:1;stroke:#ffffff;stroke-width:2.24193;stroke-linecap:butt;stroke-linejoin:round;stroke-dasharray:none;stroke-opacity:1;paint-order:stroke fill markers"
           d="m 130.38047,98.890477 v -9.382665 h 3.39583 v 9.382665 z"
           id="path6959-4" /><path
           style="display:inline;fill:none;fill-opacity:1;stroke:#ffffff;stroke-width:2;stroke-linecap:butt;stroke-linejoin:round;stroke-dasharray:none;stroke-opacity:1;paint-order:stroke fill markers"
           d="m 132.06578,80.222176 c 0,0 3.85672,4.725839 0.2716,5.594959 -3.58512,0.86912 0,-4.236959 0,-4.236959 z"
           id="path6957-3" /></g></g></g></svg>
